<svg xmlns="http://www.w3.org/2000/svg" viewBox="0 0 240 100" fill="none">
  <!--
    anvil-logo.svg — 240×100 logo with wordmark
    Left zone (0–88): anvil icon silhouette
    Divider at x=95
    Right zone (103–232): "anvil" wordmark, stroke-based embedded paths
    Palette: #2D3748 body/text, #4A5568 face/top, #718096 highlights
  -->

  <!-- === ANVIL ICON === -->

  <!-- Left foot -->
  <rect x="8" y="65" width="22" height="13" rx="2" fill="#2D3748"/>
  <!-- Right foot -->
  <rect x="46" y="65" width="22" height="13" rx="2" fill="#2D3748"/>

  <!-- Waist — trapezoid connecting body to feet -->
  <path d="M15,51 L65,51 L60,65 L20,65 Z" fill="#2D3748"/>

  <!-- Body — main block -->
  <rect x="10" y="21" width="60" height="30" fill="#2D3748"/>

  <!-- Horn — left-pointing taper -->
  <path d="M10,21 L10,36 L1,28 Z" fill="#2D3748"/>

  <!-- Work face — flat top surface, lighter tone -->
  <rect x="8" y="12" width="64" height="9" rx="2" fill="#4A5568"/>

  <!-- Highlight stripe on face -->
  <rect x="8" y="12" width="42" height="3" rx="1.5" fill="#718096"/>

  <!-- Hardy hole -->
  <rect x="63" y="13" width="8" height="6" rx="1" fill="#1A202C"/>

  <!-- Divider -->
  <line x1="88" y1="14" x2="88" y2="86"
        stroke="#4A5568" stroke-width="1.5" stroke-linecap="round" opacity="0.5"/>

  <!-- === WORDMARK "anvil" — stroke-based embedded letterforms === -->
  <!--
    Cap height: y=36–68 (32px). Stroke-width=5, round caps+joins.
    a: bowl center (131,50) r=14; open gap at right; stem x=145, y=36–68
    n: left stem x=157; arch M157,46 cubic to x=175,46; right stem y=46–68
    v: chevron 183,36 → 192,68 → 201,36
    i: stem x=209 y=46–68; dot cy=32 r=3.5
    l: tall stem x=217 y=18–68
  -->
  <g fill="none" stroke="#2D3748" stroke-width="5"
     stroke-linecap="round" stroke-linejoin="round">

    <!-- a: nearly-full circle opening on right, plus right stem -->
    <path d="M145,49 A14 14 0 1 0 145,51"/>
    <line x1="145" y1="36" x2="145" y2="68"/>

    <!-- n: left stem + arched top + right descent -->
    <line x1="157" y1="36" x2="157" y2="68"/>
    <path d="M157,46 C157,36 175,36 175,46 L175,68"/>

    <!-- v: two diagonals meeting at baseline midpoint -->
    <polyline points="183,36 192,68 201,36"/>

    <!-- i: short stem + dot above -->
    <line x1="209" y1="46" x2="209" y2="68"/>
    <circle cx="209" cy="32" r="3.5" fill="#2D3748" stroke="none"/>

    <!-- l: tall stem extending above cap height -->
    <line x1="217" y1="18" x2="217" y2="68"/>

  </g>
</svg>
